<svg id="visual" viewBox="0 0 960 300" width="960" height="300" xmlns="http://www.w3.org/2000/svg" xmlns:xlink="http://www.w3.org/1999/xlink" version="1.1"><path d="M0 82L17.8 77C35.7 72 71.3 62 106.8 60C142.3 58 177.7 64 213.2 65C248.7 66 284.3 62 320 56C355.7 50 391.3 42 426.8 39C462.3 36 497.7 38 533.2 42.5C568.7 47 604.3 54 640 58C675.7 62 711.3 63 746.8 62.5C782.3 62 817.7 60 853.2 57C888.7 54 924.3 50 942.2 48L960 46L960 0L942.2 0C924.3 0 888.7 0 853.2 0C817.7 0 782.3 0 746.8 0C711.3 0 675.7 0 640 0C604.3 0 568.7 0 533.2 0C497.7 0 462.3 0 426.8 0C391.3 0 355.7 0 320 0C284.3 0 248.7 0 213.2 0C177.7 0 142.3 0 106.8 0C71.3 0 35.7 0 17.8 0L0 0Z" fill="#000000"></path><path d="M0 187L17.8 176C35.7 165 71.3 143 106.8 137C142.3 131 177.7 141 213.2 144C248.7 147 284.3 143 320 144.5C355.7 146 391.3 153 426.8 153C462.3 153 497.7 146 533.2 146.5C568.7 147 604.3 155 640 154.5C675.7 154 711.3 145 746.8 136C782.3 127 817.7 118 853.2 114.5C888.7 111 924.3 113 942.2 114L960 115L960 44L942.2 46C924.3 48 888.7 52 853.2 55C817.7 58 782.3 60 746.8 60.5C711.3 61 675.7 60 640 56C604.3 52 568.7 45 533.2 40.5C497.7 36 462.3 34 426.8 37C391.3 40 355.7 48 320 54C284.3 60 248.7 64 213.2 63C177.7 62 142.3 56 106.8 58C71.3 60 35.7 70 17.8 75L0 80Z" fill="#600024"></path><path d="M0 232L17.8 224.5C35.7 217 71.3 202 106.8 195.5C142.3 189 177.7 191 213.2 190.5C248.7 190 284.3 187 320 190.5C355.7 194 391.3 204 426.8 211C462.3 218 497.7 222 533.2 224.5C568.7 227 604.3 228 640 223.5C675.7 219 711.3 209 746.8 205.5C782.3 202 817.7 205 853.2 204C888.7 203 924.3 198 942.2 195.5L960 193L960 113L942.2 112C924.3 111 888.7 109 853.2 112.5C817.7 116 782.3 125 746.8 134C711.3 143 675.7 152 640 152.5C604.3 153 568.7 145 533.2 144.5C497.7 144 462.3 151 426.8 151C391.3 151 355.7 144 320 142.5C284.3 141 248.7 145 213.2 142C177.7 139 142.3 129 106.8 135C71.3 141 35.7 163 17.8 174L0 185Z" fill="#850040"></path><path d="M0 250L17.8 246C35.7 242 71.3 234 106.8 231.5C142.3 229 177.7 232 213.2 232C248.7 232 284.3 229 320 228C355.7 227 391.3 228 426.8 234C462.3 240 497.7 251 533.2 253.5C568.7 256 604.3 250 640 246C675.7 242 711.3 240 746.8 239C782.3 238 817.7 238 853.2 238C888.7 238 924.3 238 942.2 238L960 238L960 191L942.2 193.5C924.3 196 888.7 201 853.2 202C817.7 203 782.3 200 746.8 203.5C711.3 207 675.7 217 640 221.5C604.3 226 568.7 225 533.2 222.5C497.7 220 462.3 216 426.8 209C391.3 202 355.7 192 320 188.5C284.3 185 248.7 188 213.2 188.5C177.7 189 142.3 187 106.8 193.5C71.3 200 35.7 215 17.8 222.5L0 230Z" fill="#aa1b5d"></path><path d="M0 277L17.8 276C35.7 275 71.3 273 106.8 271.5C142.3 270 177.7 269 213.2 270.5C248.7 272 284.3 276 320 275.5C355.7 275 391.3 270 426.8 270C462.3 270 497.7 275 533.2 277.5C568.7 280 604.3 280 640 279.5C675.7 279 711.3 278 746.8 276.5C782.3 275 817.7 273 853.2 274C888.7 275 924.3 279 942.2 281L960 283L960 236L942.2 236C924.3 236 888.7 236 853.2 236C817.7 236 782.3 236 746.8 237C711.3 238 675.7 240 640 244C604.3 248 568.7 254 533.2 251.5C497.7 249 462.3 238 426.8 232C391.3 226 355.7 225 320 226C284.3 227 248.7 230 213.2 230C177.7 230 142.3 227 106.8 229.5C71.3 232 35.7 240 17.8 244L0 248Z" fill="#cf3d7b"></path><path d="M0 301L17.8 301C35.7 301 71.3 301 106.8 301C142.3 301 177.7 301 213.2 301C248.7 301 284.3 301 320 301C355.7 301 391.3 301 426.8 301C462.3 301 497.7 301 533.2 301C568.7 301 604.3 301 640 301C675.7 301 711.3 301 746.8 301C782.3 301 817.7 301 853.2 301C888.7 301 924.3 301 942.2 301L960 301L960 281L942.2 279C924.3 277 888.7 273 853.2 272C817.7 271 782.3 273 746.8 274.5C711.3 276 675.7 277 640 277.5C604.3 278 568.7 278 533.2 275.5C497.7 273 462.3 268 426.8 268C391.3 268 355.7 273 320 273.5C284.3 274 248.7 270 213.2 268.5C177.7 267 142.3 268 106.8 269.5C71.3 271 35.7 273 17.8 274L0 275Z" fill="#f45b9b"></path></svg>