<svg id="visual" viewBox="0 0 960 300" width="960" height="300" xmlns="http://www.w3.org/2000/svg" xmlns:xlink="http://www.w3.org/1999/xlink" version="1.1"><rect x="0" y="0" width="960" height="300" fill="#3c31dd"></rect><path d="M0 180L26.7 183.5C53.3 187 106.7 194 160 200C213.3 206 266.7 211 320 213C373.3 215 426.7 214 480 209.3C533.3 204.7 586.7 196.3 640 195C693.3 193.7 746.7 199.3 800 198.8C853.3 198.3 906.7 191.7 933.3 188.3L960 185L960 301L933.3 301C906.7 301 853.3 301 800 301C746.7 301 693.3 301 640 301C586.7 301 533.3 301 480 301C426.7 301 373.3 301 320 301C266.7 301 213.3 301 160 301C106.7 301 53.3 301 26.7 301L0 301Z" fill="#fa7268"></path><path d="M0 235L26.7 234C53.3 233 106.7 231 160 226.3C213.3 221.7 266.7 214.3 320 217C373.3 219.7 426.7 232.3 480 231.8C533.3 231.3 586.7 217.7 640 215.7C693.3 213.7 746.7 223.3 800 227.7C853.3 232 906.7 231 933.3 230.5L960 230L960 301L933.3 301C906.7 301 853.3 301 800 301C746.7 301 693.3 301 640 301C586.7 301 533.3 301 480 301C426.7 301 373.3 301 320 301C266.7 301 213.3 301 160 301C106.7 301 53.3 301 26.7 301L0 301Z" fill="#eb5967"></path><path d="M0 234L26.7 239C53.3 244 106.7 254 160 258.7C213.3 263.3 266.7 262.7 320 258.5C373.3 254.3 426.7 246.7 480 242.5C533.3 238.3 586.7 237.7 640 236.3C693.3 235 746.7 233 800 236.7C853.3 240.3 906.7 249.7 933.3 254.3L960 259L960 301L933.3 301C906.7 301 853.3 301 800 301C746.7 301 693.3 301 640 301C586.7 301 533.3 301 480 301C426.7 301 373.3 301 320 301C266.7 301 213.3 301 160 301C106.7 301 53.3 301 26.7 301L0 301Z" fill="#da3f67"></path><path d="M0 267L26.7 267C53.3 267 106.7 267 160 268.7C213.3 270.3 266.7 273.7 320 274.2C373.3 274.7 426.7 272.3 480 270.5C533.3 268.7 586.7 267.3 640 269.7C693.3 272 746.7 278 800 278.3C853.3 278.7 906.7 273.3 933.3 270.7L960 268L960 301L933.3 301C906.7 301 853.3 301 800 301C746.7 301 693.3 301 640 301C586.7 301 533.3 301 480 301C426.7 301 373.3 301 320 301C266.7 301 213.3 301 160 301C106.7 301 53.3 301 26.7 301L0 301Z" fill="#c62368"></path></svg>