<svg id="visual" viewBox="0 0 960 300" width="960" height="300" xmlns="http://www.w3.org/2000/svg" xmlns:xlink="http://www.w3.org/1999/xlink" version="1.1"><rect x="0" y="0" width="960" height="300" fill="#594ee8"></rect><path d="M0 109L26.7 114.5C53.3 120 106.7 131 160 140.7C213.3 150.3 266.7 158.7 320 162C373.3 165.3 426.7 163.7 480 156.2C533.3 148.7 586.7 135.3 640 133C693.3 130.7 746.7 139.3 800 138.5C853.3 137.7 906.7 127.3 933.3 122.2L960 117L960 301L933.3 301C906.7 301 853.3 301 800 301C746.7 301 693.3 301 640 301C586.7 301 533.3 301 480 301C426.7 301 373.3 301 320 301C266.7 301 213.3 301 160 301C106.7 301 53.3 301 26.7 301L0 301Z" fill="#fa7268"></path><path d="M0 197L26.7 195.3C53.3 193.7 106.7 190.3 160 182.7C213.3 175 266.7 163 320 167.3C373.3 171.7 426.7 192.3 480 191.7C533.3 191 586.7 169 640 165.8C693.3 162.7 746.7 178.3 800 185.2C853.3 192 906.7 190 933.3 189L960 188L960 301L933.3 301C906.7 301 853.3 301 800 301C746.7 301 693.3 301 640 301C586.7 301 533.3 301 480 301C426.7 301 373.3 301 320 301C266.7 301 213.3 301 160 301C106.7 301 53.3 301 26.7 301L0 301Z" fill="#eb5967"></path><path d="M0 195L26.7 203C53.3 211 106.7 227 160 234.5C213.3 242 266.7 241 320 234.3C373.3 227.7 426.7 215.3 480 208.7C533.3 202 586.7 201 640 199C693.3 197 746.7 194 800 199.8C853.3 205.7 906.7 220.3 933.3 227.7L960 235L960 301L933.3 301C906.7 301 853.3 301 800 301C746.7 301 693.3 301 640 301C586.7 301 533.3 301 480 301C426.7 301 373.3 301 320 301C266.7 301 213.3 301 160 301C106.7 301 53.3 301 26.7 301L0 301Z" fill="#da3f67"></path><path d="M0 248L26.7 247.8C53.3 247.7 106.7 247.3 160 249.8C213.3 252.3 266.7 257.7 320 258.7C373.3 259.7 426.7 256.3 480 253.5C533.3 250.7 586.7 248.3 640 252C693.3 255.7 746.7 265.3 800 265.8C853.3 266.3 906.7 257.7 933.3 253.3L960 249L960 301L933.3 301C906.7 301 853.3 301 800 301C746.7 301 693.3 301 640 301C586.7 301 533.3 301 480 301C426.7 301 373.3 301 320 301C266.7 301 213.3 301 160 301C106.7 301 53.3 301 26.7 301L0 301Z" fill="#c62368"></path></svg>