<?xml version="1.0" encoding="UTF-8" standalone="no"?>
<svg
   id="visual"
   viewBox="0 0 960 100"
   width="960"
   height="100"
   version="1.1"
   sodipodi:docname="flipped.svg"
   inkscape:version="1.1 (c68e22c387, 2021-05-23)"
   xmlns:inkscape="http://www.inkscape.org/namespaces/inkscape"
   xmlns:sodipodi="http://sodipodi.sourceforge.net/DTD/sodipodi-0.dtd"
   xmlns="http://www.w3.org/2000/svg"
   xmlns:svg="http://www.w3.org/2000/svg">
  <defs
     id="defs17" />
  <sodipodi:namedview
     id="namedview15"
     pagecolor="#505050"
     bordercolor="#eeeeee"
     borderopacity="1"
     inkscape:pageshadow="0"
     inkscape:pageopacity="0"
     inkscape:pagecheckerboard="0"
     showgrid="false"
     inkscape:zoom="0.5765625"
     inkscape:cx="546.34146"
     inkscape:cy="72.845528"
     inkscape:window-width="1366"
     inkscape:window-height="745"
     inkscape:window-x="-8"
     inkscape:window-y="-8"
     inkscape:window-maximized="1"
     inkscape:current-layer="visual" />
  <path
     d="m 0,73 17.8,1.7 c 17.9,1.6 53.5,5 89,5.6 35.5,0.7 70.9,-1.3 106.4,-1.6 35.5,-0.4 71.1,1 106.8,3 35.7,2 71.3,4.6 106.8,5.6 35.5,1 70.9,0.4 106.4,-1.1 35.5,-1.5 71.1,-3.9 106.8,-5.2 35.7,-1.3 71.3,-1.7 106.8,-1.5 35.5,0.2 70.9,0.8 106.4,1.8 35.5,1 71.1,2.4 89,3 L 960,85 v 16 h -17.8 c -17.9,0 -53.5,0 -89,0 -35.5,0 -70.9,0 -106.4,0 -35.5,0 -71.1,0 -106.8,0 -35.7,0 -71.3,0 -106.8,0 -35.5,0 -70.9,0 -106.4,0 -35.5,0 -71.1,0 -106.8,0 -35.7,0 -71.3,0 -106.8,0 -35.5,0 -70.9,0 -106.4,0 -35.5,0 -71.1,0 -89,0 H 0 Z"
     fill="#000000"
     id="path2" />
  <path
     d="m 0,38 17.8,3.7 c 17.9,3.6 53.5,11 89,13 35.5,2 70.9,-1.4 106.4,-2.4 35.5,-1 71.1,0.4 106.8,-0.1 35.7,-0.5 71.3,-2.9 106.8,-2.9 35.5,0 70.9,2.4 106.4,2.2 35.5,-0.2 71.1,-2.8 106.8,-2.7 35.7,0.2 71.3,3.2 106.8,6.2 35.5,3 70.9,6 106.4,7.2 35.5,1.1 71.1,0.5 89,0.1 L 960,62 v 25 l -17.8,-0.7 c -17.9,-0.6 -53.5,-2 -89,-3 -35.5,-1 -70.9,-1.6 -106.4,-1.8 -35.5,-0.2 -71.1,0.2 -106.8,1.5 -35.7,1.3 -71.3,3.7 -106.8,5.2 -35.5,1.5 -70.9,2.1 -106.4,1.1 -35.5,-1 -71.1,-3.6 -106.8,-5.6 -35.7,-2 -71.3,-3.4 -106.8,-3 -35.5,0.3 -70.9,2.3 -106.4,1.6 -35.5,-0.6 -71.1,-4 -89,-5.6 L 0,75 Z"
     fill="#600024"
     id="path4" />
  <path
     d="m 0,23 17.8,2.5 c 17.9,2.5 53.5,7.5 89,9.7 35.5,2.1 70.9,1.5 106.4,1.6 35.5,0.2 71.1,1.2 106.8,0 35.7,-1.1 71.3,-4.5 106.8,-6.8 35.5,-2.3 70.9,-3.7 106.4,-4.5 35.5,-0.8 71.1,-1.2 106.8,0.3 35.7,1.5 71.3,4.9 106.8,6 35.5,1.2 70.9,0.2 106.4,0.5 35.5,0.4 71.1,2 89,2.9 L 960,36 v 28 l -17.8,0.3 c -17.9,0.4 -53.5,1 -89,-0.1 C 817.7,63 782.3,60 746.8,57 711.3,54 675.7,51 640,50.8 c -35.7,-0.1 -71.3,2.5 -106.8,2.7 -35.5,0.2 -70.9,-2.2 -106.4,-2.2 -35.5,0 -71.1,2.4 -106.8,2.9 -35.7,0.5 -71.3,-0.9 -106.8,0.1 -35.5,1 -70.9,4.4 -106.4,2.4 -35.5,-2 -71.1,-9.4 -89,-13 L 0,40 Z"
     fill="#850040"
     id="path6" />
  <path
     d="m 0,17 17.8,1.3 c 17.9,1.4 53.5,4 89,4.9 35.5,0.8 70.9,-0.2 106.4,-0.2 35.5,0 71.1,1 106.8,1.3 35.7,0.4 71.3,0 106.8,-2 35.5,-2 70.9,-5.6 106.4,-6.5 35.5,-0.8 71.1,1.2 106.8,2.5 35.7,1.4 71.3,2 106.8,2.4 35.5,0.3 70.9,0.3 106.4,0.3 35.5,0 71.1,0 89,0 H 960 V 38 L 942.2,37.2 C 924.3,36.3 888.7,34.7 853.2,34.3 817.7,34 782.3,35 746.8,33.8 711.3,32.7 675.7,29.3 640,27.8 604.3,26.3 568.7,26.7 533.2,27.5 497.7,28.3 462.3,29.7 426.8,32 391.3,34.3 355.7,37.7 320,38.8 284.3,40 248.7,39 213.2,38.8 177.7,38.7 142.3,39.3 106.8,37.2 71.3,35 35.7,30 17.8,27.5 L 0,25 Z"
     fill="#aa1b5d"
     id="path8" />
  <path
     d="m 0,8 17.8,0.3 c 17.9,0.4 53.5,1 89,1.5 35.5,0.5 70.9,0.9 106.4,0.4 35.5,-0.5 71.1,-1.9 106.8,-1.7 35.7,0.2 71.3,1.8 106.8,1.8 35.5,0 70.9,-1.6 106.4,-2.5 C 568.7,7 604.3,7 640,7.2 c 35.7,0.1 71.3,0.5 106.8,1 35.5,0.5 70.9,1.1 106.4,0.8 35.5,-0.3 71.1,-1.7 89,-2.3 L 960,6 v 17 h -17.8 c -17.9,0 -53.5,0 -89,0 -35.5,0 -70.9,0 -106.4,-0.3 C 711.3,22.3 675.7,21.7 640,20.3 604.3,19 568.7,17 533.2,17.8 c -35.5,0.9 -70.9,4.5 -106.4,6.5 -35.5,2 -71.1,2.4 -106.8,2 C 284.3,26 248.7,25 213.2,25 177.7,25 142.3,26 106.8,25.2 71.3,24.3 35.7,21.7 17.8,20.3 L 0,19 Z"
     fill="#cf3d7b"
     id="path10" />
  <path
     d="m 0,0 h 17.8 c 17.9,0 53.5,0 89,0 35.5,0 70.9,0 106.4,0 35.5,0 71.1,0 106.8,0 35.7,0 71.3,0 106.8,0 35.5,0 70.9,0 106.4,0 35.5,0 71.1,0 106.8,0 35.7,0 71.3,0 106.8,0 35.5,0 70.9,0 106.4,0 35.5,0 71.1,0 89,0 H 960 v 8 l -17.8,0.7 c -17.9,0.6 -53.5,2 -89,2.3 C 817.7,11.3 782.3,10.7 746.8,10.2 711.3,9.7 675.7,9.3 640,9.2 604.3,9 568.7,9 533.2,9.8 c -35.5,0.9 -70.9,2.5 -106.4,2.5 -35.5,0 -71.1,-1.6 -106.8,-1.8 -35.7,-0.2 -71.3,1.2 -106.8,1.7 -35.5,0.5 -70.9,0.1 -106.4,-0.4 -35.5,-0.5 -71.1,-1.1 -89,-1.5 L 0,10 Z"
     fill="#f45b9b"
     id="path12" />
</svg>
